# xmcd
#
# Track frame offsets:
#  150
#  42515
#  70905
#  91005
#  127837
#  164115
#  181742
#  237705
#  283337
#
# Disc length: 4092 seconds
#
# Revision: 0
# Processed by: cddbd v1.5.1PL2 Copyright (c) Steve Scherf et al.
# Submitted via: Collectorz.com_Music_Collector 6.10
#
DISCID=810ffa09
DTITLE=Haydn, Franz Joseph - Concertos pour violon et orchestre Hob.VIIa:1, 3 and 4
DYEAR=1993
DGENRE=Concerto violon
TTITLE0=Concerto pour violon et orchestre Hob.VIIa:1 en ut majeur - 1. Allegro moderato
TTITLE1=2. Adagio
TTITLE2=3. Presto
TTITLE3=Concerto pour violon et orchestre Hob.VIIa:4 en sol majeur - 1. Allegro moderato
TTITLE4=2. Adagio
TTITLE5=3. Finale, Allegro
TTITLE6=Concerto pour violon et orchestre Hob.VIIa:3 en la majeur - 1. Moderato
TTITLE7=2. Adagio
TTITLE8=3. Finale, Allegro
EXTD=
EXTT0=
EXTT1=
EXTT2=
EXTT3=
EXTT4=
EXTT5=
EXTT6=
EXTT7=
EXTT8=
PLAYORDER=
